# xmcd
#
# Track frame offsets: 
#        150
#        12940
#        31663
#        48841
#        70665
#        93051
#        114401
#        131252
#        155510
#        176774
#        197305
#
# Disc length: 2802 seconds
#
# Revision: 3
# Processed by: cddbd v1.5.2PL0 Copyright (c) Steve Scherf et al.
# Submitted via: ExactAudioCopy v0.95b4
#
DISCID=770af00b
DTITLE=Kem - Promise To Love
DYEAR=2014
DGENRE=R&B
TTITLE0=Saving My Love For You
TTITLE1=Promise To Love
TTITLE2=Downtown
TTITLE3=Beautiful World
TTITLE4=Do What You Gotta Do
TTITLE5=Say Something Real
TTITLE6=My Favorite Thing
TTITLE7=It's You
TTITLE8=The Soft Side Of Love
TTITLE9=Nobody
TTITLE10=Pray For Me
EXTD=
EXTT0=
EXTT1=
EXTT2=
EXTT3=
EXTT4=
EXTT5=
EXTT6=
EXTT7=
EXTT8=
EXTT9=
EXTT10=
PLAYORDER=
